<?xml version="1.0" encoding="UTF-8" standalone="no"?>
<!-- Created with Inkscape (http://www.inkscape.org/) -->

<svg
   xmlns:dc="http://purl.org/dc/elements/1.1/"
   xmlns:cc="http://creativecommons.org/ns#"
   xmlns:rdf="http://www.w3.org/1999/02/22-rdf-syntax-ns#"
   xmlns:svg="http://www.w3.org/2000/svg"
   xmlns="http://www.w3.org/2000/svg"
   xmlns:sodipodi="http://sodipodi.sourceforge.net/DTD/sodipodi-0.dtd"
   xmlns:inkscape="http://www.inkscape.org/namespaces/inkscape"
   width="180"
   height="60"
   viewBox="0 0 47.624999 15.875"
   version="1.1"
   id="svg8"
   inkscape:version="0.92.4 (5da689c313, 2019-01-14)"
   sodipodi:docname="logo-full.svg">
  <defs
     id="defs2" />
  <sodipodi:namedview
     id="base"
     pagecolor="#ffffff"
     bordercolor="#666666"
     borderopacity="1.0"
     inkscape:pageopacity="0.0"
     inkscape:pageshadow="2"
     inkscape:zoom="1.4182101"
     inkscape:cx="68.148275"
     inkscape:cy="102.85714"
     inkscape:document-units="px"
     inkscape:current-layer="layer1"
     showgrid="false"
     units="px"
     inkscape:window-width="1600"
     inkscape:window-height="837"
     inkscape:window-x="-8"
     inkscape:window-y="-8"
     inkscape:window-maximized="1" />
  <metadata
     id="metadata5">
    <rdf:RDF>
      <cc:Work
         rdf:about="">
        <dc:format>image/svg+xml</dc:format>
        <dc:type
           rdf:resource="http://purl.org/dc/dcmitype/StillImage" />
        <dc:title />
      </cc:Work>
    </rdf:RDF>
  </metadata>
  <g
     inkscape:label="Calque 1"
     inkscape:groupmode="layer"
     id="layer1"
     transform="translate(0,-281.12498)">
    <text
       xml:space="preserve"
       style="font-style:normal;font-variant:normal;font-weight:900;font-stretch:normal;font-size:10.58333302px;line-height:1.25;font-family:nunito;-inkscape-font-specification:'nunito Heavy';letter-spacing:-0.26458332px;word-spacing:0px;fill:#6610f2;fill-opacity:1;stroke:none;stroke-width:0.26458332"
       x="18.279268"
       y="293.98447"
       id="text4520"><tspan
         sodipodi:role="line"
         id="tspan4518"
         x="18.279268"
         y="293.98447"
         style="font-style:normal;font-variant:normal;font-weight:900;font-stretch:normal;font-size:16.93333244px;font-family:nunito;-inkscape-font-specification:'nunito Heavy';letter-spacing:-0.26458332px;stroke-width:0.26458332">ti<tspan
   style="letter-spacing:-1.05833328px"
   id="tspan814">q</tspan>a</tspan></text>
    <path
       id="path825"
       d="m 14.972324,291.80442 c 0.757831,-0.74684 1.212534,-1.68384 1.212534,-2.70614 0,-2.20463 -2.108154,-4.02614 -4.855633,-4.35137 -0.868057,-1.58726 -2.9073077,-2.70335 -5.2855173,-2.70335 -3.166352,0 -5.73195031,1.97313 -5.73195031,4.40921 0,1.01962 0.45469715,1.95657 1.21252681,2.7061 -0.4216297,0.84601 -1.02789656,1.50185 -1.03891666,1.51295 -0.17361015,0.18463 -0.22321858,0.45469 -0.12125634,0.68894 0.0992094,0.23419 0.33069474,0.38571 0.58422004,0.38571 1.47432646,0 2.66480886,-0.55666 3.45019606,-1.06916 0.2535288,0.0577 0.5153244,0.10187 0.7826313,0.13497 0.865305,1.5819 2.89629,2.69518 5.2717454,2.69518 0.57319,0 1.124345,-0.0664 1.64793,-0.18745 0.785388,0.5098 1.973118,1.06927 3.450202,1.06927 0.253524,0 0.482248,-0.15156 0.584212,-0.38581 0.0992,-0.23425 0.05236,-0.50432 -0.12125,-0.68896 -0.01098,-0.008 -0.620043,-0.66408 -1.041674,-1.51009 z m -10.8245693,-2.54359 -0.4712331,0.30594 c -0.3885601,0.25074 -0.7853877,0.44918 -1.1877292,0.58962 0.074425,-0.12947 0.1488101,-0.26724 0.2204657,-0.40784 l 0.4271373,-0.85699 -0.6834232,-0.67511 c -0.3720291,-0.36933 -0.8184587,-0.97281 -0.8184587,-1.76368 0,-1.67272 2.0199629,-3.0865 4.4091942,-3.0865 2.3892326,0 4.4091963,1.41378 4.4091963,3.0865 0,1.67271 -2.0199637,3.08637 -4.4091963,3.08637 -0.4546982,0 -0.9093965,-0.0519 -1.3503155,-0.15431 z m 9.8958813,1.60113 -0.680666,0.6724 0.427144,0.857 c 0.07162,0.1406 0.146051,0.27837 0.220455,0.40784 -0.402335,-0.14056 -0.799163,-0.33893 -1.187723,-0.58972 l -0.471232,-0.30589 -0.548395,0.12672 c -0.440924,0.10198 -0.895618,0.15432 -1.350315,0.15432 -1.4881049,0 -2.8163745,-0.55386 -3.6182974,-1.36954 2.7915727,-0.29765 4.9410514,-2.13299 4.9410514,-4.36232 0,-0.0937 -0.01099,-0.18463 -0.01932,-0.2756 1.774704,0.39954 3.105723,1.56528 3.105723,2.92111 0,0.79087 -0.44643,1.39432 -0.818452,1.76368 z"
       inkscape:connector-curvature="0"
       style="fill:#6610f2;stroke-width:0.02755744" />
  </g>
</svg>
